{
	"patcher" : 	{
		"fileversion" : 1,
		"appversion" : 		{
			"major" : 7,
			"minor" : 3,
			"revision" : 4,
			"architecture" : "x86",
			"modernui" : 1
		}
,
		"rect" : [ 2036.0, 1748.0, 1372.0, 810.0 ],
		"bglocked" : 0,
		"openinpresentation" : 0,
		"default_fontsize" : 12.0,
		"default_fontface" : 0,
		"default_fontname" : "Arial",
		"gridonopen" : 1,
		"gridsize" : [ 15.0, 15.0 ],
		"gridsnaponopen" : 1,
		"objectsnaponopen" : 1,
		"statusbarvisible" : 2,
		"toolbarvisible" : 1,
		"lefttoolbarpinned" : 0,
		"toptoolbarpinned" : 0,
		"righttoolbarpinned" : 0,
		"bottomtoolbarpinned" : 0,
		"toolbars_unpinned_last_save" : 0,
		"tallnewobj" : 0,
		"boxanimatetime" : 200,
		"enablehscroll" : 1,
		"enablevscroll" : 1,
		"devicewidth" : 0.0,
		"description" : "",
		"digest" : "",
		"tags" : "",
		"style" : "",
		"subpatcher_template" : "",
		"boxes" : [ 			{
				"box" : 				{
					"id" : "obj-35",
					"maxclass" : "comment",
					"numinlets" : 1,
					"numoutlets" : 0,
					"patching_rect" : [ 238.599976, 343.0, 91.0, 20.0 ],
					"style" : "",
					"text" : "toggle looping"
				}

			}
, 			{
				"box" : 				{
					"id" : "obj-26",
					"maxclass" : "toggle",
					"numinlets" : 1,
					"numoutlets" : 1,
					"outlettype" : [ "int" ],
					"parameter_enable" : 0,
					"patching_rect" : [ 202.649963, 343.0, 24.0, 24.0 ],
					"presentation_rect" : [ 475.5, 198.0, 24.0, 24.0 ],
					"style" : ""
				}

			}
, 			{
				"box" : 				{
					"fontname" : "Arial",
					"fontsize" : 13.0,
					"id" : "obj-28",
					"maxclass" : "message",
					"numinlets" : 2,
					"numoutlets" : 1,
					"outlettype" : [ "" ],
					"patching_rect" : [ 202.649963, 374.0, 54.0, 23.0 ],
					"style" : "",
					"text" : "loop $1"
				}

			}
, 			{
				"box" : 				{
					"id" : "obj-8",
					"linecount" : 3,
					"maxclass" : "comment",
					"numinlets" : 1,
					"numoutlets" : 0,
					"patching_rect" : [ 229.0, 204.0, 150.0, 47.0 ],
					"style" : "",
					"text" : "data sent from here to manipulate audio through send/receive objects"
				}

			}
, 			{
				"box" : 				{
					"id" : "obj-7",
					"linecount" : 2,
					"maxclass" : "comment",
					"numinlets" : 1,
					"numoutlets" : 0,
					"patching_rect" : [ 958.0, 42.5, 155.0, 33.0 ],
					"style" : "",
					"text" : "keeping patcher dictionary sorted improves versioning"
				}

			}
, 			{
				"box" : 				{
					"id" : "obj-13",
					"linecount" : 2,
					"maxclass" : "message",
					"numinlets" : 2,
					"numoutlets" : 1,
					"outlettype" : [ "" ],
					"patching_rect" : [ 889.0, 81.5, 164.0, 35.0 ],
					"style" : "",
					"text" : ";\rmax sortpatcherdictonsave 1"
				}

			}
, 			{
				"box" : 				{
					"id" : "obj-9",
					"maxclass" : "newobj",
					"numinlets" : 1,
					"numoutlets" : 1,
					"outlettype" : [ "bang" ],
					"patching_rect" : [ 889.0, 48.0, 60.0, 22.0 ],
					"style" : "",
					"text" : "loadbang"
				}

			}
, 			{
				"box" : 				{
					"fontname" : "Arial",
					"fontsize" : 12.0,
					"id" : "obj-5",
					"maxclass" : "comment",
					"numinlets" : 1,
					"numoutlets" : 0,
					"patching_rect" : [ 86.399963, 343.0, 60.0, 20.0 ],
					"style" : "",
					"text" : "start/stop"
				}

			}
, 			{
				"box" : 				{
					"id" : "obj-6",
					"maxclass" : "toggle",
					"numinlets" : 1,
					"numoutlets" : 1,
					"outlettype" : [ "int" ],
					"parameter_enable" : 0,
					"patching_rect" : [ 106.399963, 377.0, 20.0, 20.0 ],
					"style" : ""
				}

			}
, 			{
				"box" : 				{
					"fontname" : "Arial",
					"fontsize" : 13.0,
					"id" : "obj-43",
					"maxclass" : "newobj",
					"numinlets" : 2,
					"numoutlets" : 3,
					"outlettype" : [ "signal", "signal", "bang" ],
					"patching_rect" : [ 106.399963, 420.0, 63.0, 23.0 ],
					"saved_object_attributes" : 					{
						"basictuning" : 440,
						"followglobaltempo" : 0,
						"formantcorrection" : 0,
						"mode" : "basic",
						"originallength" : [ 12046.412109, "ticks" ],
						"originaltempo" : 120.000015,
						"pitchcorrection" : 0,
						"quality" : "basic",
						"timestretch" : [ 0 ]
					}
,
					"style" : "",
					"text" : "sfplay~ 2"
				}

			}
, 			{
				"box" : 				{
					"fontname" : "Arial",
					"fontsize" : 13.0,
					"id" : "obj-41",
					"maxclass" : "message",
					"numinlets" : 2,
					"numoutlets" : 1,
					"outlettype" : [ "" ],
					"patching_rect" : [ 143.899963, 377.0, 40.0, 23.0 ],
					"style" : "",
					"text" : "open"
				}

			}
, 			{
				"box" : 				{
					"id" : "obj-2",
					"maxclass" : "newobj",
					"numinlets" : 2,
					"numoutlets" : 0,
					"patcher" : 					{
						"fileversion" : 1,
						"appversion" : 						{
							"major" : 7,
							"minor" : 3,
							"revision" : 4,
							"architecture" : "x86",
							"modernui" : 1
						}
,
						"rect" : [ 3042.0, 308.0, 1212.0, 1350.0 ],
						"bglocked" : 0,
						"openinpresentation" : 0,
						"default_fontsize" : 12.0,
						"default_fontface" : 0,
						"default_fontname" : "Arial",
						"gridonopen" : 1,
						"gridsize" : [ 15.0, 15.0 ],
						"gridsnaponopen" : 1,
						"objectsnaponopen" : 1,
						"statusbarvisible" : 2,
						"toolbarvisible" : 1,
						"lefttoolbarpinned" : 0,
						"toptoolbarpinned" : 0,
						"righttoolbarpinned" : 0,
						"bottomtoolbarpinned" : 0,
						"toolbars_unpinned_last_save" : 0,
						"tallnewobj" : 0,
						"boxanimatetime" : 200,
						"enablehscroll" : 1,
						"enablevscroll" : 1,
						"devicewidth" : 0.0,
						"description" : "",
						"digest" : "",
						"tags" : "",
						"style" : "",
						"subpatcher_template" : "",
						"visible" : 1,
						"boxes" : [ 							{
								"box" : 								{
									"id" : "obj-37",
									"maxclass" : "slider",
									"min" : -256.0,
									"numinlets" : 1,
									"numoutlets" : 1,
									"outlettype" : [ "" ],
									"parameter_enable" : 0,
									"patching_rect" : [ 1032.199951, 114.0, 30.0, 137.0 ],
									"size" : 256.0,
									"style" : ""
								}

							}
, 							{
								"box" : 								{
									"bottomvalue" : -256,
									"id" : "obj-27",
									"leftvalue" : -256,
									"maxclass" : "pictslider",
									"numinlets" : 2,
									"numoutlets" : 2,
									"outlettype" : [ "int", "int" ],
									"parameter_enable" : 0,
									"patching_rect" : [ 854.75, 110.0, 165.0, 137.0 ],
									"rightvalue" : 256,
									"style" : "",
									"topvalue" : 256
								}

							}
, 							{
								"box" : 								{
									"id" : "obj-38",
									"maxclass" : "number",
									"numinlets" : 1,
									"numoutlets" : 2,
									"outlettype" : [ "", "bang" ],
									"parameter_enable" : 0,
									"patching_rect" : [ 456.099976, 230.0, 50.0, 22.0 ],
									"style" : ""
								}

							}
, 							{
								"box" : 								{
									"id" : "obj-36",
									"maxclass" : "newobj",
									"numinlets" : 2,
									"numoutlets" : 1,
									"outlettype" : [ "int" ],
									"patching_rect" : [ 786.950012, 110.0, 29.5, 22.0 ],
									"style" : "",
									"text" : "* -1"
								}

							}
, 							{
								"box" : 								{
									"id" : "obj-26",
									"maxclass" : "newobj",
									"numinlets" : 1,
									"numoutlets" : 3,
									"outlettype" : [ "int", "int", "int" ],
									"patching_rect" : [ 739.950012, 73.0, 66.0, 22.0 ],
									"style" : "",
									"text" : "unpack i i i"
								}

							}
, 							{
								"box" : 								{
									"id" : "obj-18",
									"maxclass" : "comment",
									"numinlets" : 1,
									"numoutlets" : 0,
									"patching_rect" : [ 558.099976, 34.0, 40.099976, 20.0 ],
									"style" : "",
									"text" : "data"
								}

							}
, 							{
								"box" : 								{
									"id" : "obj-16",
									"maxclass" : "newobj",
									"numinlets" : 0,
									"numoutlets" : 1,
									"outlettype" : [ "" ],
									"patching_rect" : [ 739.950012, 45.0, 129.0, 22.0 ],
									"style" : "",
									"text" : "receive right-palm-pos"
								}

							}
, 							{
								"box" : 								{
									"id" : "obj-15",
									"maxclass" : "comment",
									"numinlets" : 1,
									"numoutlets" : 0,
									"patching_rect" : [ 226.5, 105.0, 100.0, 20.0 ],
									"style" : "",
									"text" : "currently ignored"
								}

							}
, 							{
								"box" : 								{
									"id" : "obj-13",
									"maxclass" : "comment",
									"numinlets" : 1,
									"numoutlets" : 0,
									"patching_rect" : [ 574.099976, 465.0, 18.0, 20.0 ],
									"style" : "",
									"text" : "ct"
								}

							}
, 							{
								"box" : 								{
									"id" : "obj-11",
									"maxclass" : "comment",
									"numinlets" : 1,
									"numoutlets" : 0,
									"patching_rect" : [ 471.599976, 686.0, 37.0, 20.0 ],
									"style" : "",
									"text" : "filter"
								}

							}
, 							{
								"box" : 								{
									"id" : "obj-10",
									"maxclass" : "comment",
									"numinlets" : 1,
									"numoutlets" : 0,
									"patching_rect" : [ 248.5, 498.0, 56.0, 20.0 ],
									"style" : "",
									"text" : "volume"
								}

							}
, 							{
								"box" : 								{
									"id" : "obj-9",
									"maxclass" : "comment",
									"numinlets" : 1,
									"numoutlets" : 0,
									"patching_rect" : [ 462.599976, 610.0, 37.0, 20.0 ],
									"style" : "",
									"text" : "pitch"
								}

							}
, 							{
								"box" : 								{
									"id" : "obj-34",
									"maxclass" : "number",
									"numinlets" : 1,
									"numoutlets" : 2,
									"outlettype" : [ "", "bang" ],
									"parameter_enable" : 0,
									"patching_rect" : [ 854.75, 646.0, 50.0, 22.0 ],
									"style" : ""
								}

							}
, 							{
								"box" : 								{
									"id" : "obj-33",
									"maxclass" : "number",
									"numinlets" : 1,
									"numoutlets" : 2,
									"outlettype" : [ "", "bang" ],
									"parameter_enable" : 0,
									"patching_rect" : [ 854.75, 578.0, 50.0, 22.0 ],
									"style" : ""
								}

							}
, 							{
								"box" : 								{
									"id" : "obj-32",
									"maxclass" : "newobj",
									"numinlets" : 6,
									"numoutlets" : 1,
									"outlettype" : [ "" ],
									"patching_rect" : [ 854.75, 610.0, 163.0, 22.0 ],
									"style" : "",
									"text" : "scale -200 150 400 2200 0.5"
								}

							}
, 							{
								"box" : 								{
									"id" : "obj-31",
									"maxclass" : "newobj",
									"numinlets" : 2,
									"numoutlets" : 1,
									"outlettype" : [ "signal" ],
									"patching_rect" : [ 365.599976, 686.0, 102.0, 22.0 ],
									"style" : "",
									"text" : "onepole~ 100 Hz"
								}

							}
, 							{
								"box" : 								{
									"id" : "obj-29",
									"maxclass" : "number",
									"numinlets" : 1,
									"numoutlets" : 2,
									"outlettype" : [ "", "bang" ],
									"parameter_enable" : 0,
									"patching_rect" : [ 558.099976, 312.0, 50.0, 22.0 ],
									"style" : ""
								}

							}
, 							{
								"box" : 								{
									"fontname" : "Arial",
									"fontsize" : 13.0,
									"format" : 6,
									"id" : "obj-19",
									"maxclass" : "flonum",
									"numinlets" : 1,
									"numoutlets" : 2,
									"outlettype" : [ "", "bang" ],
									"parameter_enable" : 0,
									"patching_rect" : [ 512.599976, 465.0, 54.0, 23.0 ],
									"style" : ""
								}

							}
, 							{
								"box" : 								{
									"fontname" : "Arial",
									"fontsize" : 13.0,
									"id" : "obj-20",
									"maxclass" : "newobj",
									"numinlets" : 3,
									"numoutlets" : 2,
									"outlettype" : [ "", "" ],
									"patching_rect" : [ 512.599976, 438.0, 63.0, 23.0 ],
									"style" : "",
									"text" : "line 0. 0."
								}

							}
, 							{
								"box" : 								{
									"fontname" : "Arial",
									"fontsize" : 13.0,
									"id" : "obj-7",
									"maxclass" : "newobj",
									"numinlets" : 2,
									"numoutlets" : 1,
									"outlettype" : [ "" ],
									"patching_rect" : [ 512.599976, 409.0, 101.0, 23.0 ],
									"style" : "",
									"text" : "pack 0. 0."
								}

							}
, 							{
								"box" : 								{
									"appearance" : 1,
									"id" : "obj-22",
									"maxclass" : "live.dial",
									"numinlets" : 1,
									"numoutlets" : 2,
									"outlettype" : [ "", "float" ],
									"parameter_enable" : 1,
									"patching_rect" : [ 594.599976, 357.5, 54.0, 36.0 ],
									"saved_attribute_attributes" : 									{
										"valueof" : 										{
											"parameter_linknames" : 1,
											"parameter_longname" : "Glide",
											"parameter_shortname" : "Glide",
											"parameter_type" : 0,
											"parameter_mmax" : 10000.0,
											"parameter_initial_enable" : 1,
											"parameter_initial" : [ 0.0 ],
											"parameter_unitstyle" : 2,
											"parameter_exponent" : 3.0
										}

									}
,
									"varname" : "Glide"
								}

							}
, 							{
								"box" : 								{
									"id" : "obj-71",
									"maxclass" : "live.dial",
									"numinlets" : 1,
									"numoutlets" : 2,
									"outlettype" : [ "", "float" ],
									"parameter_enable" : 1,
									"patching_rect" : [ 512.599976, 346.5, 56.0, 47.0 ],
									"saved_attribute_attributes" : 									{
										"valueof" : 										{
											"parameter_linknames" : 1,
											"parameter_longname" : "Transp",
											"parameter_shortname" : "Transp",
											"parameter_type" : 0,
											"parameter_mmin" : -2400.0,
											"parameter_mmax" : 2400.0,
											"parameter_initial_enable" : 1,
											"parameter_initial" : [ 0.0 ],
											"parameter_unitstyle" : 9,
											"parameter_units" : "ct"
										}

									}
,
									"varname" : "Transp"
								}

							}
, 							{
								"box" : 								{
									"fontname" : "Arial",
									"fontsize" : 13.0,
									"id" : "obj-79",
									"maxclass" : "newobj",
									"numinlets" : 1,
									"numoutlets" : 1,
									"outlettype" : [ "" ],
									"patching_rect" : [ 421.599976, 548.0, 23.0, 23.0 ],
									"style" : "",
									"text" : "t l"
								}

							}
, 							{
								"box" : 								{
									"fontname" : "Arial",
									"fontsize" : 13.0,
									"id" : "obj-78",
									"maxclass" : "comment",
									"numinlets" : 1,
									"numoutlets" : 0,
									"patching_rect" : [ 406.599976, 439.0, 53.0, 21.0 ],
									"style" : "",
									"text" : "quality"
								}

							}
, 							{
								"box" : 								{
									"fontname" : "Arial",
									"fontsize" : 13.0,
									"id" : "obj-76",
									"maxclass" : "message",
									"numinlets" : 2,
									"numoutlets" : 1,
									"outlettype" : [ "" ],
									"patching_rect" : [ 421.599976, 498.0, 68.0, 23.0 ],
									"style" : "",
									"text" : "quality $1"
								}

							}
, 							{
								"box" : 								{
									"id" : "obj-74",
									"maxclass" : "live.menu",
									"numinlets" : 1,
									"numoutlets" : 3,
									"outlettype" : [ "", "", "float" ],
									"parameter_enable" : 1,
									"patching_rect" : [ 406.099976, 471.0, 50.0, 15.0 ],
									"saved_attribute_attributes" : 									{
										"valueof" : 										{
											"parameter_linknames" : 1,
											"parameter_longname" : "Quality",
											"parameter_shortname" : "Quality",
											"parameter_type" : 2,
											"parameter_enum" : [ "basic", "good", "better", "best" ],
											"parameter_initial_enable" : 1,
											"parameter_initial" : [ 0.0 ]
										}

									}
,
									"varname" : "Quality"
								}

							}
, 							{
								"box" : 								{
									"fontname" : "Arial",
									"fontsize" : 13.0,
									"id" : "obj-73",
									"maxclass" : "message",
									"numinlets" : 2,
									"numoutlets" : 1,
									"outlettype" : [ "" ],
									"patching_rect" : [ 512.599976, 498.0, 102.0, 23.0 ],
									"style" : "",
									"text" : "pitchshiftcent $1"
								}

							}
, 							{
								"box" : 								{
									"fontname" : "Arial",
									"fontsize" : 12.0,
									"id" : "obj-23",
									"maxclass" : "newobj",
									"numinlets" : 3,
									"numoutlets" : 3,
									"outlettype" : [ "signal", "signal", "list" ],
									"patching_rect" : [ 365.599976, 610.0, 89.0, 22.0 ],
									"saved_object_attributes" : 									{
										"enabled" : [ 1 ],
										"pitchshift" : [ 2.713209 ],
										"pitchshiftcent" : [ 1728 ],
										"quality" : "best",
										"reportlatency" : 0,
										"usecents" : 0
									}
,
									"style" : "",
									"text" : "pitchshift~ 2"
								}

							}
, 							{
								"box" : 								{
									"id" : "obj-8",
									"maxclass" : "newobj",
									"numinlets" : 6,
									"numoutlets" : 1,
									"outlettype" : [ "" ],
									"patching_rect" : [ 512.599976, 266.0, 153.0, 22.0 ],
									"style" : "",
									"text" : "scale -300 300 -2400 2400"
								}

							}
, 							{
								"box" : 								{
									"id" : "obj-25",
									"maxclass" : "number",
									"numinlets" : 1,
									"numoutlets" : 2,
									"outlettype" : [ "", "bang" ],
									"parameter_enable" : 0,
									"patching_rect" : [ 132.149963, 438.0, 50.0, 22.0 ],
									"style" : ""
								}

							}
, 							{
								"box" : 								{
									"id" : "obj-24",
									"maxclass" : "newobj",
									"numinlets" : 6,
									"numoutlets" : 1,
									"outlettype" : [ "" ],
									"patching_rect" : [ 238.0, 379.0, 112.0, 22.0 ],
									"style" : "",
									"text" : "scale 25 300 0 127"
								}

							}
, 							{
								"box" : 								{
									"id" : "obj-3",
									"maxclass" : "gain~",
									"numinlets" : 1,
									"numoutlets" : 2,
									"outlettype" : [ "signal", "int" ],
									"parameter_enable" : 0,
									"patching_rect" : [ 210.0, 438.0, 22.0, 140.0 ],
									"style" : ""
								}

							}
, 							{
								"box" : 								{
									"id" : "obj-21",
									"maxclass" : "ezdac~",
									"numinlets" : 2,
									"numoutlets" : 0,
									"patching_rect" : [ 351.5, 816.666748, 45.0, 45.0 ],
									"style" : ""
								}

							}
, 							{
								"box" : 								{
									"id" : "obj-2",
									"maxclass" : "comment",
									"numinlets" : 1,
									"numoutlets" : 0,
									"patching_rect" : [ 174.0, 73.0, 62.0, 20.0 ],
									"style" : "",
									"text" : "channel 2"
								}

							}
, 							{
								"box" : 								{
									"comment" : "",
									"id" : "obj-5",
									"index" : 2,
									"maxclass" : "inlet",
									"numinlets" : 0,
									"numoutlets" : 1,
									"outlettype" : [ "signal" ],
									"patching_rect" : [ 190.0, 100.0, 30.0, 30.0 ],
									"style" : ""
								}

							}
, 							{
								"box" : 								{
									"id" : "obj-4",
									"maxclass" : "comment",
									"numinlets" : 1,
									"numoutlets" : 0,
									"patching_rect" : [ 109.5, 73.0, 61.0, 20.0 ],
									"style" : "",
									"text" : "channel 1"
								}

							}
, 							{
								"box" : 								{
									"comment" : "",
									"id" : "obj-1",
									"index" : 1,
									"maxclass" : "inlet",
									"numinlets" : 0,
									"numoutlets" : 1,
									"outlettype" : [ "signal" ],
									"patching_rect" : [ 125.0, 100.0, 30.0, 30.0 ],
									"style" : ""
								}

							}
 ],
						"lines" : [ 							{
								"patchline" : 								{
									"destination" : [ "obj-3", 0 ],
									"source" : [ "obj-1", 0 ]
								}

							}
, 							{
								"patchline" : 								{
									"destination" : [ "obj-26", 0 ],
									"source" : [ "obj-16", 0 ]
								}

							}
, 							{
								"patchline" : 								{
									"destination" : [ "obj-73", 0 ],
									"source" : [ "obj-19", 0 ]
								}

							}
, 							{
								"patchline" : 								{
									"destination" : [ "obj-19", 0 ],
									"source" : [ "obj-20", 0 ]
								}

							}
, 							{
								"patchline" : 								{
									"destination" : [ "obj-7", 1 ],
									"source" : [ "obj-22", 0 ]
								}

							}
, 							{
								"patchline" : 								{
									"destination" : [ "obj-31", 0 ],
									"source" : [ "obj-23", 0 ]
								}

							}
, 							{
								"patchline" : 								{
									"destination" : [ "obj-25", 0 ],
									"order" : 1,
									"source" : [ "obj-24", 0 ]
								}

							}
, 							{
								"patchline" : 								{
									"destination" : [ "obj-3", 0 ],
									"order" : 0,
									"source" : [ "obj-24", 0 ]
								}

							}
, 							{
								"patchline" : 								{
									"destination" : [ "obj-24", 0 ],
									"midpoints" : [ 772.950012, 107.0, 338.0, 107.0, 338.0, 369.0, 247.5, 369.0 ],
									"order" : 1,
									"source" : [ "obj-26", 1 ]
								}

							}
, 							{
								"patchline" : 								{
									"destination" : [ "obj-27", 0 ],
									"order" : 0,
									"source" : [ "obj-26", 0 ]
								}

							}
, 							{
								"patchline" : 								{
									"destination" : [ "obj-36", 0 ],
									"source" : [ "obj-26", 2 ]
								}

							}
, 							{
								"patchline" : 								{
									"destination" : [ "obj-37", 0 ],
									"order" : 0,
									"source" : [ "obj-26", 1 ]
								}

							}
, 							{
								"patchline" : 								{
									"destination" : [ "obj-38", 0 ],
									"order" : 2,
									"source" : [ "obj-26", 0 ]
								}

							}
, 							{
								"patchline" : 								{
									"destination" : [ "obj-8", 0 ],
									"order" : 1,
									"source" : [ "obj-26", 0 ]
								}

							}
, 							{
								"patchline" : 								{
									"destination" : [ "obj-23", 0 ],
									"source" : [ "obj-3", 0 ]
								}

							}
, 							{
								"patchline" : 								{
									"destination" : [ "obj-21", 1 ],
									"order" : 0,
									"source" : [ "obj-31", 0 ]
								}

							}
, 							{
								"patchline" : 								{
									"destination" : [ "obj-21", 0 ],
									"order" : 1,
									"source" : [ "obj-31", 0 ]
								}

							}
, 							{
								"patchline" : 								{
									"destination" : [ "obj-31", 1 ],
									"order" : 1,
									"source" : [ "obj-32", 0 ]
								}

							}
, 							{
								"patchline" : 								{
									"destination" : [ "obj-34", 0 ],
									"order" : 0,
									"source" : [ "obj-32", 0 ]
								}

							}
, 							{
								"patchline" : 								{
									"destination" : [ "obj-32", 0 ],
									"source" : [ "obj-33", 0 ]
								}

							}
, 							{
								"patchline" : 								{
									"destination" : [ "obj-27", 1 ],
									"midpoints" : [ 796.450012, 139.0, 842.0, 139.0, 842.0, 106.0, 1010.25, 106.0 ],
									"order" : 0,
									"source" : [ "obj-36", 0 ]
								}

							}
, 							{
								"patchline" : 								{
									"destination" : [ "obj-33", 0 ],
									"order" : 1,
									"source" : [ "obj-36", 0 ]
								}

							}
, 							{
								"patchline" : 								{
									"destination" : [ "obj-20", 0 ],
									"source" : [ "obj-7", 0 ]
								}

							}
, 							{
								"patchline" : 								{
									"destination" : [ "obj-7", 0 ],
									"source" : [ "obj-71", 0 ]
								}

							}
, 							{
								"patchline" : 								{
									"destination" : [ "obj-79", 0 ],
									"source" : [ "obj-73", 0 ]
								}

							}
, 							{
								"patchline" : 								{
									"destination" : [ "obj-76", 0 ],
									"source" : [ "obj-74", 1 ]
								}

							}
, 							{
								"patchline" : 								{
									"destination" : [ "obj-79", 0 ],
									"source" : [ "obj-76", 0 ]
								}

							}
, 							{
								"patchline" : 								{
									"destination" : [ "obj-23", 0 ],
									"source" : [ "obj-79", 0 ]
								}

							}
, 							{
								"patchline" : 								{
									"destination" : [ "obj-29", 0 ],
									"order" : 0,
									"source" : [ "obj-8", 0 ]
								}

							}
, 							{
								"patchline" : 								{
									"destination" : [ "obj-71", 0 ],
									"order" : 1,
									"source" : [ "obj-8", 0 ]
								}

							}
 ]
					}
,
					"patching_rect" : [ 106.399963, 460.0, 115.0, 22.0 ],
					"saved_object_attributes" : 					{
						"description" : "",
						"digest" : "",
						"globalpatchername" : "",
						"style" : "",
						"tags" : ""
					}
,
					"style" : "",
					"text" : "p manipulate_audio"
				}

			}
, 			{
				"box" : 				{
					"id" : "obj-1",
					"maxclass" : "newobj",
					"numinlets" : 6,
					"numoutlets" : 0,
					"patcher" : 					{
						"fileversion" : 1,
						"appversion" : 						{
							"major" : 7,
							"minor" : 3,
							"revision" : 4,
							"architecture" : "x86",
							"modernui" : 1
						}
,
						"rect" : [ 1538.0, 56.0, 1436.0, 1602.0 ],
						"bglocked" : 0,
						"openinpresentation" : 0,
						"default_fontsize" : 12.0,
						"default_fontface" : 0,
						"default_fontname" : "Arial",
						"gridonopen" : 1,
						"gridsize" : [ 15.0, 15.0 ],
						"gridsnaponopen" : 1,
						"objectsnaponopen" : 1,
						"statusbarvisible" : 2,
						"toolbarvisible" : 1,
						"lefttoolbarpinned" : 0,
						"toptoolbarpinned" : 0,
						"righttoolbarpinned" : 0,
						"bottomtoolbarpinned" : 0,
						"toolbars_unpinned_last_save" : 0,
						"tallnewobj" : 0,
						"boxanimatetime" : 200,
						"enablehscroll" : 1,
						"enablevscroll" : 1,
						"devicewidth" : 0.0,
						"description" : "",
						"digest" : "",
						"tags" : "",
						"style" : "",
						"subpatcher_template" : "",
						"visible" : 1,
						"boxes" : [ 							{
								"box" : 								{
									"id" : "obj-9",
									"maxclass" : "newobj",
									"numinlets" : 1,
									"numoutlets" : 0,
									"patching_rect" : [ 830.200012, 209.0, 117.0, 22.0 ],
									"style" : "",
									"text" : "send right-palm-pos"
								}

							}
, 							{
								"box" : 								{
									"id" : "obj-7",
									"maxclass" : "newobj",
									"numinlets" : 1,
									"numoutlets" : 0,
									"patching_rect" : [ 806.200012, 241.0, 109.0, 22.0 ],
									"style" : "",
									"text" : "send left-palm-pos"
								}

							}
, 							{
								"box" : 								{
									"id" : "obj-3",
									"maxclass" : "newobj",
									"numinlets" : 1,
									"numoutlets" : 2,
									"outlettype" : [ "", "" ],
									"patcher" : 									{
										"fileversion" : 1,
										"appversion" : 										{
											"major" : 7,
											"minor" : 3,
											"revision" : 4,
											"architecture" : "x86",
											"modernui" : 1
										}
,
										"rect" : [ 34.0, 56.0, 1436.0, 1602.0 ],
										"bglocked" : 0,
										"openinpresentation" : 0,
										"default_fontsize" : 12.0,
										"default_fontface" : 0,
										"default_fontname" : "Arial",
										"gridonopen" : 1,
										"gridsize" : [ 15.0, 15.0 ],
										"gridsnaponopen" : 1,
										"objectsnaponopen" : 1,
										"statusbarvisible" : 2,
										"toolbarvisible" : 1,
										"lefttoolbarpinned" : 0,
										"toptoolbarpinned" : 0,
										"righttoolbarpinned" : 0,
										"bottomtoolbarpinned" : 0,
										"toolbars_unpinned_last_save" : 0,
										"tallnewobj" : 0,
										"boxanimatetime" : 200,
										"enablehscroll" : 1,
										"enablevscroll" : 1,
										"devicewidth" : 0.0,
										"description" : "",
										"digest" : "",
										"tags" : "",
										"style" : "",
										"subpatcher_template" : "",
										"visible" : 1,
										"boxes" : [ 											{
												"box" : 												{
													"comment" : "",
													"id" : "obj-13",
													"index" : 2,
													"maxclass" : "outlet",
													"numinlets" : 1,
													"numoutlets" : 0,
													"patching_rect" : [ 513.0, 570.0, 30.0, 30.0 ],
													"style" : ""
												}

											}
, 											{
												"box" : 												{
													"comment" : "",
													"id" : "obj-12",
													"index" : 1,
													"maxclass" : "outlet",
													"numinlets" : 1,
													"numoutlets" : 0,
													"patching_rect" : [ 474.0, 570.0, 30.0, 30.0 ],
													"style" : ""
												}

											}
, 											{
												"box" : 												{
													"id" : "obj-5",
													"maxclass" : "message",
													"numinlets" : 2,
													"numoutlets" : 1,
													"outlettype" : [ "" ],
													"patching_rect" : [ 857.0, 441.0, 29.5, 22.0 ],
													"style" : "",
													"text" : "0"
												}

											}
, 											{
												"box" : 												{
													"id" : "obj-3",
													"maxclass" : "message",
													"numinlets" : 2,
													"numoutlets" : 1,
													"outlettype" : [ "" ],
													"patching_rect" : [ 811.0, 441.0, 29.5, 22.0 ],
													"style" : "",
													"text" : "1"
												}

											}
, 											{
												"box" : 												{
													"id" : "obj-1",
													"maxclass" : "newobj",
													"numinlets" : 1,
													"numoutlets" : 1,
													"outlettype" : [ "bang" ],
													"patching_rect" : [ 811.0, 400.0, 60.0, 22.0 ],
													"style" : "",
													"text" : "loadbang"
												}

											}
, 											{
												"box" : 												{
													"id" : "obj-146",
													"int" : 1,
													"maxclass" : "gswitch2",
													"numinlets" : 2,
													"numoutlets" : 2,
													"outlettype" : [ "", "" ],
													"parameter_enable" : 0,
													"patching_rect" : [ 493.0, 521.0, 39.0, 32.0 ],
													"style" : ""
												}

											}
, 											{
												"box" : 												{
													"id" : "obj-138",
													"maxclass" : "newobj",
													"numinlets" : 1,
													"numoutlets" : 2,
													"outlettype" : [ "", "" ],
													"patching_rect" : [ 599.0, 417.0, 53.599976, 22.0 ],
													"style" : "",
													"text" : "t l l"
												}

											}
, 											{
												"box" : 												{
													"id" : "obj-106",
													"maxclass" : "newobj",
													"numinlets" : 2,
													"numoutlets" : 2,
													"outlettype" : [ "", "" ],
													"patching_rect" : [ 513.0, 477.0, 109.0, 22.0 ],
													"style" : "",
													"text" : "route palmposition"
												}

											}
, 											{
												"box" : 												{
													"id" : "obj-103",
													"maxclass" : "newobj",
													"numinlets" : 2,
													"numoutlets" : 2,
													"outlettype" : [ "", "" ],
													"patching_rect" : [ 562.0, 385.0, 56.0, 22.0 ],
													"style" : "",
													"text" : "zl.slice 1"
												}

											}
, 											{
												"box" : 												{
													"id" : "obj-145",
													"maxclass" : "toggle",
													"numinlets" : 1,
													"numoutlets" : 1,
													"outlettype" : [ "int" ],
													"parameter_enable" : 0,
													"patching_rect" : [ 722.850037, 555.0, 24.0, 24.0 ],
													"style" : ""
												}

											}
, 											{
												"box" : 												{
													"id" : "obj-143",
													"maxclass" : "number",
													"numinlets" : 1,
													"numoutlets" : 2,
													"outlettype" : [ "", "bang" ],
													"parameter_enable" : 0,
													"patching_rect" : [ 693.599976, 521.0, 27.0, 22.0 ],
													"style" : ""
												}

											}
, 											{
												"box" : 												{
													"id" : "obj-142",
													"maxclass" : "number",
													"numinlets" : 1,
													"numoutlets" : 2,
													"outlettype" : [ "", "bang" ],
													"parameter_enable" : 0,
													"patching_rect" : [ 750.599976, 521.0, 27.0, 22.0 ],
													"style" : ""
												}

											}
, 											{
												"box" : 												{
													"id" : "obj-129",
													"maxclass" : "newobj",
													"numinlets" : 3,
													"numoutlets" : 3,
													"outlettype" : [ "bang", "bang", "" ],
													"patching_rect" : [ 633.599976, 477.0, 141.0, 22.0 ],
													"style" : "",
													"text" : "select right left"
												}

											}
, 											{
												"box" : 												{
													"id" : "obj-126",
													"maxclass" : "newobj",
													"numinlets" : 2,
													"numoutlets" : 2,
													"outlettype" : [ "", "" ],
													"patching_rect" : [ 633.599976, 449.0, 119.0, 22.0 ],
													"style" : "",
													"text" : "route type"
												}

											}
, 											{
												"box" : 												{
													"comment" : "",
													"id" : "obj-159",
													"index" : 1,
													"maxclass" : "inlet",
													"numinlets" : 0,
													"numoutlets" : 1,
													"outlettype" : [ "" ],
													"patching_rect" : [ 562.0, 340.0, 30.0, 30.0 ],
													"style" : ""
												}

											}
 ],
										"lines" : [ 											{
												"patchline" : 												{
													"destination" : [ "obj-3", 0 ],
													"order" : 1,
													"source" : [ "obj-1", 0 ]
												}

											}
, 											{
												"patchline" : 												{
													"destination" : [ "obj-5", 0 ],
													"order" : 0,
													"source" : [ "obj-1", 0 ]
												}

											}
, 											{
												"patchline" : 												{
													"destination" : [ "obj-138", 0 ],
													"source" : [ "obj-103", 1 ]
												}

											}
, 											{
												"patchline" : 												{
													"destination" : [ "obj-146", 1 ],
													"source" : [ "obj-106", 0 ]
												}

											}
, 											{
												"patchline" : 												{
													"destination" : [ "obj-129", 0 ],
													"source" : [ "obj-126", 0 ]
												}

											}
, 											{
												"patchline" : 												{
													"destination" : [ "obj-142", 0 ],
													"source" : [ "obj-129", 1 ]
												}

											}
, 											{
												"patchline" : 												{
													"destination" : [ "obj-143", 0 ],
													"source" : [ "obj-129", 0 ]
												}

											}
, 											{
												"patchline" : 												{
													"destination" : [ "obj-106", 0 ],
													"source" : [ "obj-138", 0 ]
												}

											}
, 											{
												"patchline" : 												{
													"destination" : [ "obj-126", 0 ],
													"source" : [ "obj-138", 1 ]
												}

											}
, 											{
												"patchline" : 												{
													"destination" : [ "obj-145", 0 ],
													"source" : [ "obj-142", 0 ]
												}

											}
, 											{
												"patchline" : 												{
													"destination" : [ "obj-145", 0 ],
													"source" : [ "obj-143", 0 ]
												}

											}
, 											{
												"patchline" : 												{
													"destination" : [ "obj-146", 0 ],
													"source" : [ "obj-145", 0 ]
												}

											}
, 											{
												"patchline" : 												{
													"destination" : [ "obj-12", 0 ],
													"source" : [ "obj-146", 0 ]
												}

											}
, 											{
												"patchline" : 												{
													"destination" : [ "obj-13", 0 ],
													"source" : [ "obj-146", 1 ]
												}

											}
, 											{
												"patchline" : 												{
													"destination" : [ "obj-103", 0 ],
													"source" : [ "obj-159", 0 ]
												}

											}
, 											{
												"patchline" : 												{
													"destination" : [ "obj-143", 0 ],
													"source" : [ "obj-3", 0 ]
												}

											}
, 											{
												"patchline" : 												{
													"destination" : [ "obj-142", 0 ],
													"source" : [ "obj-5", 0 ]
												}

											}
 ]
									}
,
									"patching_rect" : [ 806.200012, 175.0, 120.0, 22.0 ],
									"saved_object_attributes" : 									{
										"description" : "",
										"digest" : "",
										"globalpatchername" : "",
										"style" : "",
										"tags" : ""
									}
,
									"style" : "",
									"text" : "p extract_hand_data"
								}

							}
, 							{
								"box" : 								{
									"id" : "obj-11",
									"maxclass" : "comment",
									"numinlets" : 1,
									"numoutlets" : 0,
									"patching_rect" : [ 566.0, 44.0, 207.200012, 20.0 ],
									"style" : "",
									"text" : "extract whatever data needed here"
								}

							}
, 							{
								"box" : 								{
									"fontname" : "Arial",
									"fontsize" : 11.0,
									"id" : "obj-59",
									"maxclass" : "comment",
									"numinlets" : 1,
									"numoutlets" : 0,
									"patching_rect" : [ 1039.199951, 98.0, 61.0, 19.0 ],
									"style" : "",
									"text" : "frame info"
								}

							}
, 							{
								"box" : 								{
									"fontname" : "Arial",
									"fontsize" : 11.0,
									"id" : "obj-58",
									"maxclass" : "comment",
									"numinlets" : 1,
									"numoutlets" : 0,
									"patching_rect" : [ 806.200012, 98.0, 61.0, 19.0 ],
									"style" : "",
									"text" : "hands"
								}

							}
, 							{
								"box" : 								{
									"fontname" : "Arial",
									"fontsize" : 11.0,
									"id" : "obj-57",
									"maxclass" : "comment",
									"numinlets" : 1,
									"numoutlets" : 0,
									"patching_rect" : [ 573.200012, 98.0, 60.0, 19.0 ],
									"style" : "",
									"text" : "fingers"
								}

							}
, 							{
								"box" : 								{
									"fontname" : "Arial",
									"fontsize" : 11.0,
									"id" : "obj-55",
									"maxclass" : "comment",
									"numinlets" : 1,
									"numoutlets" : 0,
									"patching_rect" : [ 340.200012, 98.0, 60.0, 19.0 ],
									"style" : "",
									"text" : "gestures"
								}

							}
, 							{
								"box" : 								{
									"fontname" : "Arial",
									"fontsize" : 11.0,
									"id" : "obj-51",
									"maxclass" : "comment",
									"numinlets" : 1,
									"numoutlets" : 0,
									"patching_rect" : [ 107.5, 98.0, 60.5, 19.0 ],
									"style" : "",
									"text" : "end frame"
								}

							}
, 							{
								"box" : 								{
									"fontname" : "Arial",
									"fontsize" : 11.0,
									"id" : "obj-12",
									"maxclass" : "comment",
									"numinlets" : 1,
									"numoutlets" : 0,
									"patching_rect" : [ 1272.199951, 98.0, 74.0, 19.0 ],
									"style" : "",
									"text" : "begin frame"
								}

							}
, 							{
								"box" : 								{
									"comment" : "",
									"id" : "obj-8",
									"index" : 4,
									"maxclass" : "inlet",
									"numinlets" : 0,
									"numoutlets" : 1,
									"outlettype" : [ "" ],
									"patching_rect" : [ 806.200012, 125.0, 30.0, 30.0 ],
									"style" : ""
								}

							}
, 							{
								"box" : 								{
									"comment" : "",
									"id" : "obj-6",
									"index" : 5,
									"maxclass" : "inlet",
									"numinlets" : 0,
									"numoutlets" : 1,
									"outlettype" : [ "" ],
									"patching_rect" : [ 1039.199951, 125.0, 30.0, 30.0 ],
									"style" : ""
								}

							}
, 							{
								"box" : 								{
									"comment" : "",
									"id" : "obj-5",
									"index" : 6,
									"maxclass" : "inlet",
									"numinlets" : 0,
									"numoutlets" : 1,
									"outlettype" : [ "" ],
									"patching_rect" : [ 1272.199951, 125.0, 30.0, 30.0 ],
									"style" : ""
								}

							}
, 							{
								"box" : 								{
									"comment" : "",
									"id" : "obj-4",
									"index" : 3,
									"maxclass" : "inlet",
									"numinlets" : 0,
									"numoutlets" : 1,
									"outlettype" : [ "" ],
									"patching_rect" : [ 573.200012, 125.0, 30.0, 30.0 ],
									"style" : ""
								}

							}
, 							{
								"box" : 								{
									"comment" : "",
									"id" : "obj-2",
									"index" : 1,
									"maxclass" : "inlet",
									"numinlets" : 0,
									"numoutlets" : 1,
									"outlettype" : [ "" ],
									"patching_rect" : [ 107.5, 125.0, 30.0, 30.0 ],
									"style" : ""
								}

							}
, 							{
								"box" : 								{
									"comment" : "",
									"id" : "obj-1",
									"index" : 2,
									"maxclass" : "inlet",
									"numinlets" : 0,
									"numoutlets" : 1,
									"outlettype" : [ "" ],
									"patching_rect" : [ 340.200012, 125.0, 30.0, 30.0 ],
									"style" : ""
								}

							}
 ],
						"lines" : [ 							{
								"patchline" : 								{
									"destination" : [ "obj-7", 0 ],
									"source" : [ "obj-3", 0 ]
								}

							}
, 							{
								"patchline" : 								{
									"destination" : [ "obj-9", 0 ],
									"source" : [ "obj-3", 1 ]
								}

							}
, 							{
								"patchline" : 								{
									"destination" : [ "obj-3", 0 ],
									"source" : [ "obj-8", 0 ]
								}

							}
 ]
					}
,
					"patching_rect" : [ 120.399963, 204.0, 87.0, 22.0 ],
					"saved_object_attributes" : 					{
						"description" : "",
						"digest" : "",
						"globalpatchername" : "",
						"style" : "",
						"tags" : ""
					}
,
					"style" : "",
					"text" : "p extract_data"
				}

			}
, 			{
				"box" : 				{
					"id" : "obj-112",
					"linecount" : 3,
					"maxclass" : "comment",
					"numinlets" : 1,
					"numoutlets" : 0,
					"patching_rect" : [ 107.0, 45.5, 394.0, 47.0 ],
					"style" : "",
					"text" : "on every bang get data from leapmotion as a package of messages\neach message has different data about that instant of time, extract and present parts of the data"
				}

			}
, 			{
				"box" : 				{
					"id" : "obj-12",
					"maxclass" : "toggle",
					"numinlets" : 1,
					"numoutlets" : 1,
					"outlettype" : [ "int" ],
					"parameter_enable" : 0,
					"patching_rect" : [ 78.149963, 62.5, 24.0, 24.0 ],
					"style" : ""
				}

			}
, 			{
				"box" : 				{
					"id" : "obj-10",
					"maxclass" : "newobj",
					"numinlets" : 2,
					"numoutlets" : 1,
					"outlettype" : [ "bang" ],
					"patching_rect" : [ 78.149963, 94.5, 58.0, 22.0 ],
					"style" : "",
					"text" : "metro 10"
				}

			}
, 			{
				"box" : 				{
					"id" : "obj-3",
					"maxclass" : "newobj",
					"numinlets" : 1,
					"numoutlets" : 6,
					"outlettype" : [ "", "", "", "", "", "" ],
					"patching_rect" : [ 78.149963, 126.5, 171.5, 22.0 ],
					"style" : "",
					"text" : "leapmotion"
				}

			}
 ],
		"lines" : [ 			{
				"patchline" : 				{
					"destination" : [ "obj-3", 0 ],
					"source" : [ "obj-10", 0 ]
				}

			}
, 			{
				"patchline" : 				{
					"destination" : [ "obj-10", 0 ],
					"source" : [ "obj-12", 0 ]
				}

			}
, 			{
				"patchline" : 				{
					"destination" : [ "obj-28", 0 ],
					"source" : [ "obj-26", 0 ]
				}

			}
, 			{
				"patchline" : 				{
					"destination" : [ "obj-43", 0 ],
					"source" : [ "obj-28", 0 ]
				}

			}
, 			{
				"patchline" : 				{
					"destination" : [ "obj-1", 5 ],
					"source" : [ "obj-3", 5 ]
				}

			}
, 			{
				"patchline" : 				{
					"destination" : [ "obj-1", 4 ],
					"source" : [ "obj-3", 4 ]
				}

			}
, 			{
				"patchline" : 				{
					"destination" : [ "obj-1", 3 ],
					"source" : [ "obj-3", 3 ]
				}

			}
, 			{
				"patchline" : 				{
					"destination" : [ "obj-1", 2 ],
					"source" : [ "obj-3", 2 ]
				}

			}
, 			{
				"patchline" : 				{
					"destination" : [ "obj-1", 1 ],
					"source" : [ "obj-3", 1 ]
				}

			}
, 			{
				"patchline" : 				{
					"destination" : [ "obj-1", 0 ],
					"source" : [ "obj-3", 0 ]
				}

			}
, 			{
				"patchline" : 				{
					"destination" : [ "obj-43", 0 ],
					"source" : [ "obj-41", 0 ]
				}

			}
, 			{
				"patchline" : 				{
					"destination" : [ "obj-2", 1 ],
					"source" : [ "obj-43", 1 ]
				}

			}
, 			{
				"patchline" : 				{
					"destination" : [ "obj-2", 0 ],
					"source" : [ "obj-43", 0 ]
				}

			}
, 			{
				"patchline" : 				{
					"destination" : [ "obj-43", 0 ],
					"source" : [ "obj-6", 0 ]
				}

			}
, 			{
				"patchline" : 				{
					"destination" : [ "obj-13", 0 ],
					"source" : [ "obj-9", 0 ]
				}

			}
 ],
		"parameters" : 		{
			"obj-2::obj-22" : [ "Glide", "Glide", 0 ],
			"obj-2::obj-74" : [ "Quality", "Quality", 0 ],
			"obj-2::obj-71" : [ "Transp", "Transp", 0 ]
		}
,
		"dependency_cache" : [ 			{
				"name" : "leapmotion.mxo",
				"type" : "iLaX"
			}
 ],
		"autosave" : 0
	}

}
